ffmpeg version 4.2.4-1ubuntu0.1 Copyright (c) 2000-2020 the FFmpeg developers
  built with gcc 9 (Ubuntu 9.3.0-10ubuntu2)
  configuration: --prefix=/usr --extra-version=1ubuntu0.1 --toolchain=hardened --libdir=/usr/lib/x86_64-linux-gnu --incdir=/usr/include/x86_64-linux-gnu --arch=amd64 --enable-gpl --disable-stripping --enable-avresample --disable-filter=resample --enable-avisynth --enable-gnutls --enable-ladspa --enable-libaom --enable-libass --enable-libbluray --enable-libbs2b --enable-libcaca --enable-libcdio --enable-libcodec2 --enable-libflite --enable-libfontconfig --enable-libfreetype --enable-libfribidi --enable-libgme --enable-libgsm --enable-libjack --enable-libmp3lame --enable-libmysofa --enable-libopenjpeg --enable-libopenmpt --enable-libopus --enable-libpulse --enable-librsvg --enable-librubberband --enable-libshine --enable-libsnappy --enable-libsoxr --enable-libspeex --enable-libssh --enable-libtheora --enable-libtwolame --enable-libvidstab --enable-libvorbis --enable-libvpx --enable-libwavpack --enable-libwebp --enable-libx265 --enable-libxml2 --enable-libxvid --enable-libzmq --enable-libzvbi --enable-lv2 --enable-omx --enable-openal --enable-opencl --enable-opengl --enable-sdl2 --enable-libdc1394 --enable-libdrm --enable-libiec61883 --enable-nvenc --enable-chromaprint --enable-frei0r --enable-libx264 --enable-shared
  WARNING: library configuration mismatch
  avcodec     configuration: --prefix=/usr --extra-version=1ubuntu0.1 --toolchain=hardened --libdir=/usr/lib/x86_64-linux-gnu --incdir=/usr/include/x86_64-linux-gnu --arch=amd64 --enable-gpl --disable-stripping --enable-avresample --disable-filter=resample --enable-avisynth --enable-gnutls --enable-ladspa --enable-libaom --enable-libass --enable-libbluray --enable-libbs2b --enable-libcaca --enable-libcdio --enable-libcodec2 --enable-libflite --enable-libfontconfig --enable-libfreetype --enable-libfribidi --enable-libgme --enable-libgsm --enable-libjack --enable-libmp3lame --enable-libmysofa --enable-libopenjpeg --enable-libopenmpt --enable-libopus --enable-libpulse --enable-librsvg --enable-librubberband --enable-libshine --enable-libsnappy --enable-libsoxr --enable-libspeex --enable-libssh --enable-libtheora --enable-libtwolame --enable-libvidstab --enable-libvorbis --enable-libvpx --enable-libwavpack --enable-libwebp --enable-libx265 --enable-libxml2 --enable-libxvid --enable-libzmq --enable-libzvbi --enable-lv2 --enable-omx --enable-openal --enable-opencl --enable-opengl --enable-sdl2 --enable-libdc1394 --enable-libdrm --enable-libiec61883 --enable-nvenc --enable-chromaprint --enable-frei0r --enable-libx264 --enable-shared --enable-version3 --disable-doc --disable-programs --enable-libaribb24 --enable-liblensfun --enable-libopencore_amrnb --enable-libopencore_amrwb --enable-libtesseract --enable-libvo_amrwbenc
  libavutil      56. 31.100 / 56. 31.100
  libavcodec     58. 54.100 / 58. 54.100
  libavformat    58. 29.100 / 58. 29.100
  libavdevice    58.  8.100 / 58.  8.100
  libavfilter     7. 57.100 /  7. 57.100
  libavresample   4.  0.  0 /  4.  0.  0
  libswscale      5.  5.100 /  5.  5.100
  libswresample   3.  5.100 /  3.  5.100
  libpostproc    55.  5.100 / 55.  5.100
Input #0, image2pipe, from 'pipe:':
  Duration: N/A, bitrate: N/A
    Stream #0:0: Video: ppm, rgb24, 320x240, 20 fps, 20 tbr, 20 tbn, 20 tbc
Stream mapping:
  Stream #0:0 -> #0:0 (ppm (native) -> h264 (libx264))
[libx264 @ 0x55f092ef6f40] using cpu capabilities: MMX2 SSE2Fast SSSE3 SSE4.2 AVX FMA3 BMI2 AVX2
[libx264 @ 0x55f092ef6f40] profile High, level 1.3
[libx264 @ 0x55f092ef6f40] 264 - core 155 r2917 0a84d98 - H.264/MPEG-4 AVC codec - Copyleft 2003-2018 - http://www.videolan.org/x264.html - options: cabac=1 ref=3 deblock=1:0:0 analyse=0x3:0x113 me=hex subme=7 psy=1 psy_rd=1.00:0.00 mixed_ref=1 me_range=16 chroma_me=1 trellis=1 8x8dct=1 cqm=0 deadzone=21,11 fast_pskip=1 chroma_qp_offset=-2 threads=7 lookahead_threads=1 sliced_threads=0 nr=0 decimate=1 interlaced=0 bluray_compat=0 constrained_intra=0 bframes=3 b_pyramid=2 b_adapt=1 b_bias=0 direct=1 weightb=1 open_gop=0 weightp=2 keyint=250 keyint_min=20 scenecut=40 intra_refresh=0 rc_lookahead=40 rc=abr mbtree=1 bitrate=400 ratetol=1.0 qcomp=0.60 qpmin=0 qpmax=69 qpstep=4 ip_ratio=1.40 aq=1:1.00
Output #0, mp4, to './mission_records/50527347-8bc7-4f7d-b071-c86d10b858d2/video.mp4':
  Metadata:
    encoder         : Lavf58.29.100
    Stream #0:0: Video: h264 (libx264) (avc1 / 0x31637661), yuv420p, 320x240, q=-1--1, 400 kb/s, 20 fps, 10240 tbn, 20 tbc
    Metadata:
      encoder         : Lavc58.54.100 libx264
    Side data:
      cpb: bitrate max/min/avg: 0/0/400000 buffer size: 0 vbv_delay: -1
frame=   31 fps=0.0 q=0.0 size=       0kB time=00:00:00.00 bitrate=N/A speed=   0x    frame=   40 fps= 39 q=0.0 size=       0kB time=00:00:00.00 bitrate=N/A speed=   0x    frame=   49 fps= 32 q=0.0 size=       0kB time=00:00:00.00 bitrate=N/A speed=   0x    frame=   59 fps= 28 q=29.0 size=       0kB time=00:00:00.25 bitrate=   1.5kbits/s speed=0.12x    frame=   69 fps= 26 q=24.0 size=       0kB time=00:00:00.75 bitrate=   0.5kbits/s speed=0.284x    frame=   78 fps= 25 q=23.0 size=       0kB time=00:00:01.20 bitrate=   0.3kbits/s speed=0.378x    frame=   87 fps= 24 q=21.0 size=       0kB time=00:00:01.65 bitrate=   0.2kbits/s speed=0.449x    frame=   96 fps= 23 q=20.0 size=       0kB time=00:00:02.10 bitrate=   0.2kbits/s speed= 0.5x    frame=  105 fps= 22 q=19.0 size=       0kB time=00:00:02.55 bitrate=   0.2kbits/s speed=0.542x    frame=  114 fps= 22 q=19.0 size=       0kB time=00:00:03.00 bitrate=   0.1kbits/s speed=0.575x    frame=  123 fps= 21 q=18.0 size=       0kB time=00:00:03.45 bitrate=   0.1kbits/s speed= 0.6x    frame=  132 fps= 21 q=18.0 size=       0kB time=00:00:03.90 bitrate=   0.1kbits/s speed=0.619x    frame=  141 fps= 21 q=18.0 size=       0kB time=00:00:04.35 bitrate=   0.1kbits/s speed=0.638x    frame=  150 fps= 20 q=17.0 size=       0kB time=00:00:04.80 bitrate=   0.1kbits/s speed=0.651x    frame=  159 fps= 20 q=17.0 size=       0kB time=00:00:05.25 bitrate=   0.1kbits/s speed=0.665x    frame=  168 fps= 20 q=17.0 size=       0kB time=00:00:05.70 bitrate=   0.1kbits/s speed=0.678x    frame=  177 fps= 20 q=17.0 size=       0kB time=00:00:06.15 bitrate=   0.1kbits/s speed=0.69x    frame=  186 fps= 20 q=17.0 size=     256kB time=00:00:06.60 bitrate= 317.8kbits/s speed=0.698x    frame=  195 fps= 20 q=17.0 size=     256kB time=00:00:07.05 bitrate= 297.5kbits/s speed=0.706x    frame=  204 fps= 19 q=17.0 size=     256kB time=00:00:07.50 bitrate= 279.7kbits/s speed=0.714x    frame=  214 fps= 19 q=17.0 size=     256kB time=00:00:08.00 bitrate= 262.2kbits/s speed=0.725x    frame=  223 fps= 19 q=17.0 size=     256kB time=00:00:08.45 bitrate= 248.2kbits/s speed=0.732x    frame=  233 fps= 19 q=17.0 size=     256kB time=00:00:08.95 bitrate= 234.4kbits/s speed=0.74x    frame=  242 fps= 19 q=16.0 size=     256kB time=00:00:09.40 bitrate= 223.1kbits/s speed=0.744x    frame=  251 fps= 19 q=16.0 size=     256kB time=00:00:09.85 bitrate= 212.9kbits/s speed=0.749x    frame=  259 fps= 19 q=16.0 size=     256kB time=00:00:10.25 bitrate= 204.6kbits/s speed=0.75x    frame=  268 fps= 19 q=16.0 size=     256kB time=00:00:10.70 bitrate= 196.0kbits/s speed=0.754x    frame=  277 fps= 19 q=16.0 size=     256kB time=00:00:11.15 bitrate= 188.1kbits/s speed=0.758x    frame=  286 fps= 19 q=16.0 size=     256kB time=00:00:11.60 bitrate= 180.8kbits/s speed=0.761x    frame=  295 fps= 19 q=16.0 size=     512kB time=00:00:12.05 bitrate= 348.1kbits/s speed=0.764x    frame=  304 fps= 19 q=17.0 size=     512kB time=00:00:12.50 bitrate= 335.6kbits/s speed=0.768x    frame=  313 fps= 19 q=17.0 size=     512kB time=00:00:12.95 bitrate= 323.9kbits/s speed=0.77x    frame=  322 fps= 19 q=17.0 size=     512kB time=00:00:13.40 bitrate= 313.0kbits/s speed=0.772x    frame=  331 fps= 19 q=17.0 size=     512kB time=00:00:13.85 bitrate= 302.9kbits/s speed=0.775x    frame=  340 fps= 18 q=17.0 size=     512kB time=00:00:14.30 bitrate= 293.3kbits/s speed=0.777x    frame=  349 fps= 18 q=17.0 size=     512kB time=00:00:14.75 bitrate= 284.4kbits/s speed=0.781x    frame=  358 fps= 18 q=17.0 size=     512kB time=00:00:15.20 bitrate= 276.0kbits/s speed=0.783x    frame=  367 fps= 18 q=17.0 size=     512kB time=00:00:15.65 bitrate= 268.0kbits/s speed=0.786x    frame=  376 fps= 18 q=17.0 size=     512kB time=00:00:16.10 bitrate= 260.5kbits/s speed=0.788x    frame=  385 fps= 18 q=17.0 size=     512kB time=00:00:16.55 bitrate= 253.5kbits/s speed=0.79x    frame=  394 fps= 18 q=17.0 size=     768kB time=00:00:17.00 bitrate= 370.1kbits/s speed=0.791x    frame=  403 fps= 18 q=17.0 size=     768kB time=00:00:17.45 bitrate= 360.6kbits/s speed=0.792x    frame=  412 fps= 18 q=17.0 size=     768kB time=00:00:17.90 bitrate= 351.5kbits/s speed=0.794x    frame=  421 fps= 18 q=17.0 size=     768kB time=00:00:18.35 bitrate= 342.9kbits/s speed=0.795x    frame=  430 fps= 18 q=16.0 size=     768kB time=00:00:18.80 bitrate= 334.7kbits/s speed=0.797x    frame=  439 fps= 18 q=16.0 size=     768kB time=00:00:19.25 bitrate= 326.8kbits/s speed=0.798x    frame=  448 fps= 18 q=16.0 size=     768kB time=00:00:19.70 bitrate= 319.4kbits/s speed= 0.8x    frame=  452 fps= 18 q=-1.0 Lsize=    1034kB time=00:00:22.45 bitrate= 377.3kbits/s speed=0.899x    
video:1028kB audio:0kB subtitle:0kB other streams:0kB global headers:0kB muxing overhead: 0.579713%
[libx264 @ 0x55f092ef6f40] frame I:2     Avg QP:13.18  size: 21780
[libx264 @ 0x55f092ef6f40] frame P:132   Avg QP: 8.30  size:  5740
[libx264 @ 0x55f092ef6f40] frame B:318   Avg QP:13.99  size:   788
[libx264 @ 0x55f092ef6f40] consecutive B-frames:  3.1%  4.4% 14.6% 77.9%
[libx264 @ 0x55f092ef6f40] mb I  I16..4: 24.7% 35.2% 40.2%
[libx264 @ 0x55f092ef6f40] mb P  I16..4:  3.3%  0.8%  0.4%  P16..4: 58.8%  4.4%  9.6%  0.0%  0.0%    skip:22.6%
[libx264 @ 0x55f092ef6f40] mb B  I16..4:  0.1%  0.0%  0.0%  B16..8: 22.5%  2.0%  1.3%  direct: 4.3%  skip:69.8%  L0:46.0% L1:50.4% BI: 3.6%
[libx264 @ 0x55f092ef6f40] final ratefactor: 12.63
[libx264 @ 0x55f092ef6f40] 8x8 transform intra:21.9% inter:46.8%
[libx264 @ 0x55f092ef6f40] coded y,uvDC,uvAC intra: 39.8% 50.0% 40.8% inter: 18.9% 19.5% 14.5%
[libx264 @ 0x55f092ef6f40] i16 v,h,dc,p:  8% 65% 27%  1%
[libx264 @ 0x55f092ef6f40] i8 v,h,dc,ddl,ddr,vr,hd,vl,hu:  8% 30% 25%  6%  6%  4%  6%  4% 11%
[libx264 @ 0x55f092ef6f40] i4 v,h,dc,ddl,ddr,vr,hd,vl,hu: 10% 34% 17%  5%  7%  5%  8%  5%  9%
[libx264 @ 0x55f092ef6f40] i8c dc,h,v,p: 31% 64%  4%  1%
[libx264 @ 0x55f092ef6f40] Weighted P-Frames: Y:10.6% UV:1.5%
[libx264 @ 0x55f092ef6f40] ref P L0: 84.5%  3.7%  8.3%  3.4%  0.2%
[libx264 @ 0x55f092ef6f40] ref B L0: 88.7%  9.6%  1.8%
[libx264 @ 0x55f092ef6f40] ref B L1: 94.0%  6.0%
[libx264 @ 0x55f092ef6f40] kb/s:372.35
